<?xml version="1.0" encoding="utf-8"?>
<!-- Generator: Adobe Illustrator 27.0.0, SVG Export Plug-In . SVG Version: 6.00 Build 0)  -->
<svg version="1.1" id="Calque_1" xmlns="http://www.w3.org/2000/svg" x="0px" y="0px"
     viewBox="0 0 142 142" style="enable-background:new 0 0 142 142;" xml:space="preserve">
<style type="text/css">
	.st0{fill:#985CA0;}
	.st1{fill:#0071B8;}
</style>
<path class="st0" d="M91.2,116.7L62.1,99.7c-1.4-0.8-3-0.8-4.4,0c-1.4,0.8-2.2,2.3-2.2,3.8v5.6c-2.3-0.1-4.5-0.4-6.5-0.8
	c-3.8-0.9-7.2-2.3-10.2-4c-3.3-2-6.3-4.3-8.8-6.9c-2.6-2.8-4.8-6-6.6-9.4c-1.7-3.6-2.9-7.4-3.6-11.2c-0.1-0.6-0.1-1.2-0.2-1.8
	c0-0.4-0.1-0.8-0.1-1.3l-0.2-1.5l-0.1-1.4c0-2.4,0.1-4.3,0.3-6c0,0,0,0,0-0.1c1-8.1,4.4-16,9.8-22.4c1.5-1.8,1.4-4.4-0.3-6.1
	s-4.3-1.7-6-0.1C15.3,43.2,9.8,52.6,7.3,62.6c-0.6,2.3-1,4.8-1.3,7.8c0,0,0,0.1,0,0.1l-0.2,1.8c0,0.1,0,0.2,0,0.3l0,1.8
	c0,0,0,0,0,0.1c0,0.4,0,0.8,0,1.2c0,0.9,0,1.7,0,2.7c0,0,0,0.1,0,0.1C6.1,83.7,7.1,89,8.9,94.2c0,0,0,0.1,0.1,0.1
	c1.9,5.1,4.4,9.9,7.6,14.3c0,0,0,0.1,0.1,0.1c3.2,4.3,7.1,8.3,11.6,11.7c0,0,0,0,0,0c4.3,3.2,9.2,5.9,14.7,8c0,0,0,0,0.1,0
	c3.8,1.4,8,2.4,12.5,3v6c0,1.6,0.8,3,2.2,3.8c0.7,0.4,1.4,0.6,2.2,0.6s1.5-0.2,2.2-0.6l29.1-16.9c1.4-0.8,2.2-2.3,2.2-3.8
	S92.5,117.5,91.2,116.7L91.2,116.7z"/>
<path class="st1" d="M136.2,63.6C136.2,63.6,136.2,63.6,136.2,63.6c-0.3-5.3-1.3-10.6-3.1-15.8c0,0,0-0.1-0.1-0.1
	c-1.9-5.1-4.4-9.9-7.6-14.3c0,0,0,0-0.1-0.1c-3.2-4.3-7.1-8.3-11.6-11.7c0,0,0,0-0.1,0c-4.3-3.2-9.2-5.9-14.7-8c0,0,0,0-0.1,0
	c-3.8-1.4-8-2.4-12.5-3V4.6c0-1.6-0.8-3-2.2-3.8s-3-0.8-4.4,0L50.9,17.7c-1.4,0.8-2.2,2.3-2.2,3.8s0.8,3,2.2,3.8L80,42.3
	c1.4,0.8,3,0.8,4.4,0c1.4-0.8,2.2-2.3,2.2-3.8v-5.6c2.3,0.1,4.5,0.4,6.5,0.8c3.8,0.9,7.2,2.3,10.2,4c3.3,2,6.3,4.3,8.8,6.9
	c2.6,2.8,4.8,6,6.6,9.4c1.7,3.6,2.9,7.4,3.7,11.1c0.1,0.6,0.2,1.2,0.2,1.8c0.1,0.4,0.1,0.8,0.2,1.3l0.2,1.5l0.1,1.5
	c0,2.4-0.1,4.3-0.3,6c0,0,0,0,0,0.1c-0.9,8.1-4.4,16.1-9.8,22.4c-1.5,1.8-1.4,4.4,0.3,6.1c0.8,0.8,2,1.3,3.1,1.3s2.1-0.4,3-1.2
	c7.6-6.9,13.1-16.3,15.6-26.3c0.6-2.3,1-4.8,1.3-7.8c0,0,0-0.1,0-0.1l0.1-1.8c0-0.1,0-0.2,0-0.3l0-1.8c0,0,0,0,0-0.1
	c0-0.4,0-0.8,0-1.2C136.2,65.4,136.2,64.6,136.2,63.6L136.2,63.6z"/>
</svg>
