<?xml version="1.0" encoding="UTF-8"?>
<svg id="Calque_1" data-name="Calque 1" xmlns="http://www.w3.org/2000/svg" viewBox="0 0 283.46 76.54">
  <defs>
    <style>
      .cls-1 {
        fill: #0071b8;
      }

      .cls-2 {
        fill: #985ca0;
      }

      .cls-3 {
        fill: #fefffe;
      }
    </style>
  </defs>
  <g>
    <path class="cls-3" d="M3.12,47.96c.69,.3,1.47,.6,2.32,.93,.85,.32,1.67,.64,2.44,.97,.77,.32,1.27,.51,1.48,.56,1.55,.65,3.03,1.24,4.44,1.77,1.41,.54,3,.81,4.76,.81,1.65,0,3.2-.31,4.64-.93,1.44-.62,2.7-1.48,3.76-2.58,1.07-1.1,1.91-2.38,2.52-3.83,.61-1.45,.92-3.01,.92-4.67,0-2.26-.68-4.04-2.04-5.36-1.36-1.32-3.06-2.42-5.09-3.3-2.03-.89-4.23-1.69-6.61-2.42-2.38-.72-4.58-1.65-6.61-2.78-2.03-1.13-3.72-2.59-5.09-4.39-1.36-1.8-2.04-4.23-2.04-7.29,0-2.36,.49-4.5,1.48-6.4,.99-1.91,2.29-3.53,3.92-4.87,1.63-1.34,3.48-2.38,5.57-3.1,2.08-.72,4.22-1.09,6.41-1.09,.85,0,2.05,.13,3.6,.4,1.55,.27,3.07,.67,4.56,1.21,1.49,.54,2.79,1.23,3.88,2.09,1.09,.86,1.64,1.85,1.64,2.98,0,.86-.29,1.62-.88,2.3-.59,.67-1.31,1.01-2.16,1.01-.69,0-1.4-.19-2.12-.56-.72-.38-1.51-.78-2.36-1.21-.85-.43-1.8-.83-2.84-1.21s-2.2-.56-3.48-.56c-1.12,0-2.26,.19-3.4,.56-1.15,.38-2.2,.91-3.16,1.61-.96,.7-1.74,1.56-2.32,2.58-.59,1.02-.88,2.15-.88,3.38,0,1.77,.47,3.24,1.4,4.39,.93,1.15,2.08,2.12,3.44,2.9,1.36,.78,2.84,1.44,4.44,1.97,1.6,.54,3.04,1.05,4.32,1.53,1.71,.65,3.39,1.44,5.04,2.38,1.65,.94,3.12,2.04,4.4,3.3,1.28,1.26,2.32,2.71,3.12,4.35,.8,1.64,1.2,3.48,1.2,5.52,0,2.52-.51,4.9-1.52,7.13-1.01,2.23-2.38,4.19-4.08,5.88-1.71,1.69-3.68,3.03-5.93,4.03-2.24,.99-4.59,1.49-7.05,1.49-1.18,0-2.62-.19-4.32-.56-1.71-.38-3.47-.83-5.29-1.37-1.82-.54-3.58-1.1-5.29-1.69-1.71-.59-3.15-1.1-4.32-1.53l2-6.85c.05,.05,.43,.23,1.12,.52Z"/>
    <path class="cls-3" d="M45,15.65l10.73,32.34,9.77-30.16c.27-.75,.67-1.41,1.2-1.98,.53-.56,1.23-.85,2.08-.85,.91,0,1.71,.32,2.4,.97,.69,.65,1.04,1.43,1.04,2.34,0,.27-.24,1.2-.72,2.78-.48,1.59-1.13,3.59-1.96,6.01-.83,2.42-1.78,5.16-2.84,8.23-1.07,3.07-2.16,6.2-3.28,9.4-1.12,3.2-2.24,6.39-3.36,9.56-1.12,3.17-2.15,6.08-3.08,8.71-.93,2.63-1.74,4.89-2.4,6.77-.67,1.88-1.11,3.15-1.32,3.79-.27,.75-.65,1.44-1.16,2.06-.51,.62-1.21,.93-2.12,.93s-1.71-.3-2.4-.89c-.69-.59-1.04-1.37-1.04-2.34,0-.48,.25-1.48,.76-2.98,.51-1.51,1.08-3.11,1.72-4.8,.64-1.69,1.27-3.32,1.88-4.88,.61-1.56,1.05-2.66,1.32-3.31l-13.77-39.6,6.57-2.1Z"/>
    <path class="cls-3" d="M80.48,18.47c0-.97,.35-1.79,1.04-2.46,.69-.67,1.52-1.01,2.48-1.01,.85,0,1.51,.19,1.96,.56,.45,.38,.77,.85,.96,1.41,.19,.56,.28,1.2,.28,1.9v1.94c1.23-1.83,2.87-3.23,4.93-4.19,2.05-.97,4.18-1.45,6.37-1.45,2.4,0,4.56,.4,6.49,1.21,1.92,.81,3.56,1.94,4.92,3.39,1.36,1.45,2.4,3.17,3.12,5.16,.72,1.99,1.08,4.17,1.08,6.53v24.76c0,.97-.33,1.79-1,2.46-.67,.67-1.48,1.01-2.44,1.01-.91,0-1.68-.34-2.32-1.01s-.96-1.46-.96-2.38V31.53c0-1.4-.27-2.73-.8-3.99-.53-1.26-1.27-2.36-2.2-3.31-.93-.94-2.02-1.69-3.24-2.26-1.23-.56-2.54-.85-3.92-.85s-2.7,.27-3.92,.81c-1.23,.54-2.3,1.28-3.2,2.22-.91,.94-1.62,2.03-2.12,3.27-.51,1.24-.76,2.55-.76,3.95v27.5h-6.73V18.47Z"/>
    <path class="cls-3" d="M123,28.87c.85-2.69,2.12-5.07,3.8-7.14,1.68-2.07,3.74-3.71,6.17-4.92,2.43-1.21,5.22-1.81,8.37-1.81,1.28,0,2.44,.09,3.48,.28,1.04,.19,2.04,.44,3,.77,.96,.32,1.92,.73,2.88,1.21,.96,.48,1.97,1.02,3.04,1.61l-3.28,5.65c-1.39-.75-2.86-1.48-4.4-2.18-1.55-.7-3.12-1.05-4.72-1.05-2.19,0-4.06,.47-5.61,1.41-1.55,.94-2.82,2.15-3.8,3.63-.99,1.48-1.72,3.16-2.2,5.04-.48,1.88-.72,3.76-.72,5.65,0,1.72,.24,3.54,.72,5.44,.48,1.91,1.21,3.64,2.2,5.2,.99,1.56,2.21,2.85,3.68,3.87,1.47,1.02,3.22,1.53,5.24,1.53,.8,0,1.6-.13,2.4-.4,.8-.27,1.57-.55,2.32-.85,.75-.3,1.44-.58,2.08-.85,.64-.27,1.2-.4,1.68-.4,.85,0,1.59,.31,2.2,.93,.61,.62,.92,1.33,.92,2.14,0,1.18-.44,2.14-1.32,2.86-.88,.73-1.94,1.3-3.16,1.73-1.23,.43-2.5,.73-3.8,.89-1.31,.16-2.39,.24-3.24,.24-3.1,0-5.85-.6-8.25-1.81-2.4-1.21-4.42-2.82-6.05-4.84-1.63-2.02-2.86-4.36-3.68-7.02-.83-2.66-1.24-5.44-1.24-8.35s.43-5.78,1.28-8.47Z"/>
  </g>
  <g>
    <path class="cls-3" d="M231.82,18.39c0-1.02,.35-1.84,1.04-2.46,.69-.62,1.52-.93,2.48-.93,.91,0,1.67,.35,2.28,1.05,.61,.7,.92,1.48,.92,2.34V58.79h-6.73V18.39Zm1.2-14.96c.53-.56,1.23-.85,2.08-.85,.75,0,1.41,.27,2,.81,.59,.54,.88,1.21,.88,2.02s-.28,1.49-.84,2.06-1.24,.85-2.04,.85c-.75,0-1.41-.28-2-.85-.59-.56-.88-1.22-.88-1.98,0-.81,.27-1.49,.8-2.06Z"/>
    <path class="cls-3" d="M249.83,18.47c0-.97,.35-1.79,1.04-2.46,.69-.67,1.52-1.01,2.48-1.01,.85,0,1.51,.19,1.96,.56,.45,.38,.77,.85,.96,1.41,.19,.56,.28,1.2,.28,1.9v1.94c1.23-1.83,2.87-3.23,4.93-4.19,2.05-.97,4.18-1.45,6.37-1.45,2.4,0,4.56,.4,6.49,1.21,1.92,.81,3.56,1.94,4.93,3.39,1.36,1.45,2.4,3.17,3.12,5.16,.72,1.99,1.08,4.17,1.08,6.53v24.76c0,.97-.33,1.79-1,2.46-.67,.67-1.48,1.01-2.44,1.01-.91,0-1.68-.34-2.32-1.01s-.96-1.46-.96-2.38V31.53c0-1.4-.27-2.73-.8-3.99-.53-1.26-1.27-2.36-2.2-3.31-.93-.94-2.02-1.69-3.24-2.26-1.23-.56-2.54-.85-3.92-.85s-2.7,.27-3.92,.81c-1.23,.54-2.3,1.28-3.2,2.22-.91,.94-1.62,2.03-2.12,3.27-.51,1.24-.76,2.55-.76,3.95v27.5h-6.73V18.47Z"/>
  </g>
  <g>
    <path class="cls-2" d="M199.84,58.33l-11.92-6.93c-.56-.32-1.25-.32-1.81,0-.56,.32-.9,.93-.9,1.57v2.28c-.96-.04-1.84-.15-2.67-.33-1.55-.38-2.95-.93-4.17-1.62-1.35-.8-2.57-1.76-3.62-2.84-1.06-1.16-1.97-2.45-2.7-3.85-.71-1.48-1.21-3.02-1.5-4.57-.04-.23-.06-.48-.09-.74-.02-.17-.04-.34-.06-.51l-.07-.6-.02-.6c-.02-.97,.02-1.75,.11-2.45,0,0,0-.02,0-.03,.39-3.32,1.82-6.58,4.02-9.17,.62-.73,.57-1.82-.11-2.49-.68-.67-1.77-.69-2.47-.04-3.1,2.84-5.36,6.66-6.37,10.78-.24,.94-.42,1.95-.55,3.19,0,.01,0,.03,0,.04l-.06,.75s0,.08,0,.13v.75s-.01,.02-.01,.03c0,.16,0,.32,0,.48,0,.35,0,.71,0,1.09,0,.01,0,.03,0,.04,.12,2.15,.55,4.31,1.26,6.44,0,.02,.01,.04,.02,.05,.77,2.08,1.82,4.06,3.12,5.87,0,.01,.01,.02,.02,.03,1.32,1.77,2.92,3.39,4.74,4.79,0,0,.01,.01,.02,.02,1.75,1.31,3.77,2.41,6.02,3.27,0,0,.02,0,.03,.01,1.57,.57,3.28,.98,5.12,1.22v2.45c0,.65,.34,1.25,.9,1.57,.28,.16,.59,.24,.9,.24s.62-.08,.9-.24l11.92-6.93c.56-.32,.9-.93,.9-1.57s-.34-1.25-.9-1.57Z"/>
    <path class="cls-1" d="M218.31,36.61s0-.03,0-.04c-.12-2.15-.55-4.31-1.26-6.44,0-.02-.01-.04-.02-.05-.77-2.08-1.82-4.06-3.12-5.87,0-.01-.01-.02-.02-.03-1.32-1.77-2.92-3.39-4.74-4.79,0,0-.01-.01-.02-.02-1.75-1.31-3.77-2.41-6.02-3.27,0,0-.02,0-.03-.01-1.57-.57-3.28-.98-5.12-1.22v-2.45c0-.65-.34-1.25-.9-1.57-.56-.32-1.25-.32-1.81,0l-11.92,6.93c-.56,.32-.9,.93-.9,1.57s.34,1.25,.9,1.57l11.92,6.93c.56,.32,1.25,.32,1.81,0,.56-.32,.9-.93,.9-1.57v-2.28c.96,.04,1.84,.15,2.67,.33,1.55,.38,2.95,.93,4.17,1.62,1.35,.8,2.57,1.76,3.62,2.84,1.06,1.16,1.97,2.45,2.7,3.85,.71,1.48,1.21,3.02,1.5,4.57,.04,.23,.06,.48,.09,.74,.02,.17,.04,.34,.06,.51l.07,.6,.02,.6c.02,.97-.02,1.75-.11,2.45,0,0,0,.02,0,.03-.39,3.32-1.82,6.58-4.02,9.17-.62,.73-.57,1.82,.11,2.49,.35,.34,.8,.51,1.26,.51s.87-.16,1.21-.47c3.1-2.84,5.36-6.66,6.37-10.78,.24-.94,.42-1.95,.55-3.19,0-.01,0-.03,0-.04l.06-.75s0-.08,0-.13v-.75s.01-.02,.01-.03c0-.16,0-.32,0-.48,0-.35,0-.71,0-1.09Z"/>
  </g>
</svg>
