<?xml version="1.0" encoding="utf-8"?>
<svg height="256" preserveAspectRatio="xMidYMid" viewBox="0 0 256 256" width="256px" xmlns="http://www.w3.org/2000/svg" xmlns:xlink="http://www.w3.org/1999/xlink">
  <linearGradient id="a">
    <stop offset="0"/>
    <stop offset="1" stop-color="#fff"/>
  </linearGradient>
  <linearGradient id="b" x1="15.791304%" x2="91.00874%" y1="14.737049%" y2="85.228125%" xlink:href="#a"/>
  <linearGradient id="c" x1="82.135667%" x2="-3.113154%" y1="85.237395%" y2="14.79005%" xlink:href="#a"/>
  <path d="M 127.809 182.985 C 177.587 250.843 226.302 164.043 226.23 111.846 C 226.147 50.131 163.596 15.639 127.769 15.639 C 70.264 15.639 15.5 63.165 15.5 128.19 C 15.5 200.466 78.276 240.5 127.769 240.5 C 116.569 238.887 79.245 230.889 78.743 144.922 C 78.405 86.778 97.711 63.548 127.688 73.767 C 128.358 74.016 160.754 86.794 160.754 128.542 C 160.754 170.109 127.809 182.985 127.809 182.985 Z" fill="url(#b)"/>
  <path d="M 127.751 73.72 C 94.858 62.384 54.565 89.492 54.565 143.791 C 54.565 232.453 120.266 240.5 128.231 240.5 C 185.736 240.5 240.5 192.974 240.5 127.95 C 240.5 55.673 177.724 15.639 128.231 15.639 C 141.939 13.741 202.118 30.474 202.118 112.723 C 202.118 166.36 157.182 195.558 127.958 183.082 C 127.285 182.832 94.891 170.054 94.891 128.309 C 94.891 86.739 127.751 73.72 127.751 73.72 Z" fill="url(#c)"/>
</svg>