<?xml version="1.0" encoding="utf-8"?>
<svg viewBox="0 0 512 512" xmlns="http://www.w3.org/2000/svg" xmlns:xlink="http://www.w3.org/1999/xlink">
  <g fill-opacity=".078" transform="matrix(0.922074, 0, 0, 0.922074, 31.000124, 19.949066)">
    <path d="m82.44 0c-32.387 0-58.47 26.08-58.47 58.47v395.06c0 32.387 26.08 58.47 58.47 58.47h236.78l168.81-168.81v-284.72c0-32.387-26.08-58.47-58.47-58.47h-347.12"/>
    <path d="m84.81 3.5c-31.944 0-57.688 25.712-57.688 57.656v389.69c0 31.944 25.743 57.656 57.688 57.656h234.91l165.16-165.16v-282.19c0-31.944-25.743-57.656-57.688-57.656h-342.37"/>
    <path d="m87.16 7c-31.501 0-56.844 25.374-56.844 56.875v384.25c0 31.501 25.342 56.875 56.844 56.875h233.06l161.47-161.47v-279.66c0-31.501-25.342-56.875-56.844-56.875h-337.69"/>
  </g>
  <path d="M 113.553 29.631 C 84.914 29.631 61.862 52.683 61.862 81.322 L 61.862 430.678 C 61.862 459.317 84.914 482.369 113.553 482.369 L 326.728 482.369 L 472.24 336.857 L 472.24 81.331 C 472.24 52.692 449.188 29.64 420.549 29.64 L 113.553 29.64" fill="#ba9f74"/>
  <path fill="#282629" d="M 61.861 328.069 L 61.861 430.678 C 61.861 459.317 84.913 482.369 113.552 482.369 L 326.727 482.369 L 472.239 336.857 L 472.239 328.068 L 61.861 328.068" fill-opacity=".235"/>
  <rect rx="10.523" height="53.904" width="135.84" y="377.29" x="113.489" fill="#fff"/>
  <path d="M 124.867 382.121 L 124.867 426.352 L 134.51 426.352 L 134.51 382.121 L 124.867 382.121 M 143.655 382.121 L 143.655 426.352 L 145.67 426.352 L 145.67 382.121 L 143.655 382.121 M 156.943 382.121 L 156.943 426.352 L 162.331 426.352 L 162.331 382.121 L 156.943 382.121 M 169.801 382.121 L 169.801 426.352 L 179.399 426.352 L 179.399 382.121 L 169.801 382.121 M 186.348 382.121 L 186.348 426.352 L 192.755 426.352 L 192.755 382.121 L 186.348 382.121 M 199.433 382.121 L 199.433 426.352 L 209.621 426.352 L 209.621 382.121 L 199.433 382.121 M 217.09 382.121 L 217.09 426.352 L 221.89 426.352 L 221.89 382.121 L 217.09 382.121 M 230.968 382.121 L 230.968 426.352 L 237.962 426.352 L 237.962 382.121 L 230.968 382.121" fill="#282629"/>
  <path opacity=".25" d="M 355.054 29.631 C 355.868 30.872 356.322 32.274 356.322 33.78 L 356.322 40.062 C 356.322 45.019 351.322 49.024 345.146 49.024 L 337.885 49.024 C 337.903 49.252 337.913 49.454 337.913 49.687 C 337.913 50.893 337.665 52.057 337.222 53.116 C 341.467 53.981 344.57 57.152 344.57 60.982 L 344.57 66.688 C 344.57 71.187 340.257 74.785 334.888 74.785 L 330.45 74.785 C 330.567 75.389 330.652 76.018 330.652 76.657 C 330.652 77.853 330.439 78.977 330.047 80.029 C 333.925 80.853 336.79 84.083 336.79 87.953 L 336.79 93.629 C 336.79 98.128 332.888 101.755 328.059 101.755 L 323.564 101.755 C 323.583 102.022 323.564 102.289 323.564 102.562 C 323.564 104.074 323.242 105.475 322.699 106.74 C 325.991 107.654 328.405 110.798 328.405 114.578 L 328.405 120.284 C 328.405 124.782 324.99 128.38 320.74 128.38 L 312.931 128.38 C 313.061 129.032 313.133 129.723 313.133 130.426 C 313.133 131.949 312.806 133.377 312.239 134.604 C 315.661 134.777 318.376 138.044 318.376 142.125 L 318.376 147.427 C 318.376 151.619 315.504 155.005 311.951 155.005 L 305.496 155.005 C 305.597 155.521 305.669 156.065 305.669 156.619 C 305.669 157.688 305.477 158.685 305.122 159.587 C 307.295 160.539 308.897 163.532 308.897 167.107 L 308.897 172.611 C 308.897 176.957 306.549 180.449 303.652 180.449 L 295.871 180.449 C 295.948 180.969 295.987 181.503 295.987 182.063 C 295.987 183.941 295.522 185.637 294.776 186.875 C 296.749 187.225 298.262 190.108 298.262 193.675 L 298.262 198.488 C 298.262 202.292 296.535 205.346 294.372 205.346 L 280.252 205.346 L 280.252 223.644 C 285.145 224.363 288.464 225.759 288.464 227.36 L 288.464 286.575 C 288.464 286.89 288.333 287.202 288.09 287.497 C 287.945 298.085 278.426 306.659 266.735 306.659 C 260.845 306.659 255.521 304.462 251.664 300.953 L 327.966 377.255 C 333.098 354.092 353.671 336.856 378.421 336.856 L 472.242 336.856 L 472.242 146.826 L 355.056 29.639 M 177.787 40.071 C 177.787 40.385 177.805 40.686 177.845 40.993 C 177.807 40.691 177.787 40.38 177.787 40.071 M 179.141 44.335 C 179.247 44.491 179.341 44.646 179.459 44.796 C 179.344 44.649 179.246 44.488 179.141 44.335 M 180.352 45.776 L 191.1 56.524 C 192.417 54.839 194.474 53.617 196.891 53.123 C 196.448 52.064 196.2 50.9 196.2 49.694 C 196.2 49.462 196.211 49.259 196.228 49.031 L 188.967 49.031 C 185.491 49.031 182.399 47.765 180.351 45.775 M 189.861 58.915 C 189.808 59.088 189.755 59.256 189.717 59.434 C 189.757 59.256 189.807 59.088 189.861 58.915 M 192.368 72.429 L 201.156 81.247 C 202.03 80.695 203 80.263 204.066 80.036 C 203.674 78.985 203.461 77.86 203.461 76.665 C 203.461 76.025 203.546 75.396 203.663 74.792 L 199.225 74.792 C 196.54 74.792 194.117 73.893 192.367 72.429 M 197.438 86.634 C 197.41 86.797 197.398 86.959 197.38 87.124 C 197.398 86.965 197.41 86.79 197.438 86.634 M 197.323 93.637 C 197.323 94.093 197.39 94.526 197.467 94.963 C 197.39 94.529 197.323 94.092 197.323 93.637 M 197.582 95.596 C 197.623 95.752 197.675 95.905 197.726 96.057 C 197.675 95.906 197.623 95.751 197.582 95.596 M 199.887 99.371 L 208.675 108.189 C 209.477 107.535 210.404 107.028 211.413 106.748 C 210.871 105.482 210.548 104.081 210.548 102.57 C 210.548 102.297 210.529 102.029 210.548 101.763 L 206.053 101.763 C 203.639 101.763 201.463 100.841 199.886 99.371 M 208.474 126.544 L 218.155 136.225 C 219.181 135.271 220.472 134.683 221.871 134.612 C 221.304 133.384 220.978 131.956 220.978 130.434 C 220.978 129.731 221.05 129.04 221.18 128.388 L 213.371 128.388 C 211.508 128.388 209.797 127.697 208.472 126.544 M 218.557 153.745 L 226.625 161.842 C 227.262 160.814 228.066 159.997 228.989 159.593 C 228.634 158.693 228.441 157.696 228.441 156.625 C 228.441 156.071 228.513 155.527 228.614 155.012 L 222.16 155.012 C 220.827 155.012 219.582 154.56 218.558 153.744 M 225.243 173.425 C 225.261 173.682 225.296 173.924 225.33 174.174 C 225.297 173.927 225.261 173.68 225.243 173.425 M 227.952 179.505 L 237.086 188.668 C 237.686 187.692 238.468 187.035 239.334 186.881 C 238.588 185.643 238.124 183.948 238.124 182.069 C 238.124 181.509 238.162 180.975 238.239 180.455 L 230.459 180.455 C 229.553 180.455 228.694 180.107 227.951 179.505 M 238.209 204.833 L 254.317 220.97 L 255.239 205.351 L 239.736 205.351 C 239.196 205.351 238.676 205.178 238.209 204.832 M 254.144 223.648 C 252.961 223.827 251.892 224.055 250.945 224.311 C 251.892 224.057 252.961 223.827 254.144 223.648 M 252.415 286.377 C 252.96 294.164 259.31 300.328 267.053 300.328 C 274.746 300.328 281.076 294.271 281.691 286.554 L 255.325 286.554 C 254.304 286.554 253.3 286.478 252.415 286.381"/>
  <path fill="#fdf6ea" d="M 179.057 29.631 C 178.243 30.872 177.787 32.287 177.787 33.793 L 177.787 40.058 C 177.787 45.015 182.778 49.016 188.962 49.016 L 196.235 49.016 C 196.217 49.244 196.213 49.464 196.213 49.695 C 196.213 50.901 196.448 52.053 196.891 53.112 C 192.646 53.977 189.531 57.146 189.531 60.977 L 189.531 66.672 C 189.531 71.171 193.844 74.777 199.213 74.777 L 203.66 74.777 C 203.543 75.381 203.463 76.021 203.463 76.661 C 203.463 77.856 203.684 78.983 204.076 80.035 C 200.198 80.859 197.329 84.073 197.329 87.943 L 197.329 93.616 C 197.329 98.115 201.219 101.743 206.048 101.743 L 210.56 101.743 C 210.541 102.01 210.538 102.281 210.538 102.554 C 210.538 104.065 210.872 105.472 211.414 106.738 C 208.122 107.652 205.697 110.801 205.697 114.581 L 205.697 120.276 C 205.697 124.775 209.115 128.381 213.364 128.381 L 221.184 128.381 C 221.054 129.033 220.987 129.716 220.987 130.418 C 220.987 131.94 221.296 133.374 221.863 134.602 C 218.441 134.774 215.729 138.056 215.729 142.137 L 215.729 147.438 C 215.729 151.63 218.594 155.017 222.148 155.017 L 228.612 155.017 C 228.511 155.533 228.436 156.063 228.436 156.616 C 228.436 157.686 228.629 158.694 228.984 159.595 C 226.811 160.547 225.217 163.533 225.217 167.108 L 225.217 172.607 C 225.217 176.952 227.555 180.449 230.452 180.449 L 238.229 180.449 C 238.152 180.969 238.119 181.489 238.119 182.048 C 238.119 183.926 238.578 185.628 239.324 186.867 C 237.351 187.217 235.842 190.112 235.842 193.679 L 235.842 198.498 C 235.842 202.302 237.578 205.354 239.741 205.354 L 255.25 205.354 L 254.155 223.645 C 249.423 224.359 246.421 225.733 246.4 227.343 L 245.7 284.231 C 245.53 285.215 245.437 286.228 245.437 287.254 C 245.437 297.955 254.972 306.636 266.755 306.636 C 278.443 306.636 287.946 298.079 288.092 287.491 C 288.334 287.196 288.464 286.886 288.464 286.571 L 288.464 227.336 C 288.464 225.735 285.143 224.354 280.25 223.639 L 280.25 205.348 L 294.379 205.348 C 296.542 205.348 298.278 202.297 298.278 198.491 L 298.278 193.672 C 298.278 190.105 296.769 187.209 294.795 186.86 C 295.541 185.622 296.001 183.92 296.001 182.041 C 296.001 181.482 295.967 180.963 295.891 180.443 L 303.668 180.443 C 306.565 180.443 308.903 176.946 308.903 172.6 L 308.903 167.102 C 308.903 163.526 307.309 160.54 305.135 159.589 C 305.49 158.688 305.683 157.679 305.683 156.61 C 305.683 156.055 305.609 155.526 305.508 155.011 L 311.972 155.011 C 315.525 155.011 318.39 151.624 318.39 147.431 L 318.39 142.13 C 318.39 138.049 315.678 134.768 312.257 134.595 C 312.824 133.368 313.133 131.934 313.133 130.412 C 313.133 129.709 313.065 129.026 312.935 128.375 L 320.755 128.375 C 325.004 128.375 328.422 124.769 328.422 120.27 L 328.422 114.574 C 328.422 110.795 325.997 107.646 322.706 106.732 C 323.248 105.467 323.582 104.06 323.582 102.548 C 323.582 102.275 323.579 102.003 323.559 101.737 L 328.072 101.737 C 332.901 101.737 336.79 98.109 336.79 93.61 L 336.79 87.936 C 336.79 84.066 333.922 80.853 330.043 80.029 C 330.435 78.977 330.657 77.851 330.657 76.655 C 330.657 76.015 330.576 75.375 330.459 74.771 L 334.907 74.771 C 340.276 74.771 344.588 71.165 344.588 66.666 L 344.588 60.97 C 344.588 57.14 341.474 53.971 337.228 53.106 C 337.672 52.046 337.907 50.895 337.907 49.689 C 337.907 49.456 337.903 49.238 337.885 49.01 L 345.157 49.01 C 351.338 49.01 356.333 45.008 356.333 40.051 L 356.333 33.787 C 356.333 32.281 355.876 30.865 355.062 29.624 L 179.075 29.624 M 252.435 286.376 C 253.32 286.474 254.306 286.529 255.327 286.529 L 281.701 286.529 C 281.086 294.245 274.761 300.308 267.069 300.308 C 259.326 300.308 252.98 294.163 252.436 286.375" fill-opacity=".44"/>
  <path id="0" fill-opacity=".196" fill="#fff" d="M 326.728 482.369 L 472.24 336.857 L 378.419 336.857 C 349.78 336.857 326.728 359.909 326.728 388.548 L 326.728 482.369"/>
  <use width="1" height="1" transform="matrix(0.922074, 0, 0, 0.922074, 31.000124, 19.949066)" xlink:href="#0"/>
</svg>