<svg xmlns="http://www.w3.org/2000/svg" xmlns:xlink="http://www.w3.org/1999/xlink" viewBox="0 0 51 65" fill="#fff" fill-rule="evenodd" stroke="#000" stroke-linecap="round" stroke-linejoin="round"><use xlink:href="#C" x=".5" y=".5"/><defs><filter id="A" x="-6%" y="-4.6875%" width="116%" height="112.5%"><feGaussianBlur in="SourceAlpha" stdDeviation="1"/><feOffset dx="2" dy="2" result="B"/><feFlood flood-color="#000" flood-opacity=".2"/><feComposite in2="B" operator="in" result="C"/><feMerge><feMergeNode in="C"/><feMergeNode in="SourceGraphic"/></feMerge></filter><filter id="B" x="-27.5%" y="-32.5%" width="160%" height="160%"><feGaussianBlur in="SourceAlpha" stdDeviation="2"/><feOffset dx="1" dy="-1" result="B"/><feFlood flood-color="#000" flood-opacity=".2"/><feComposite in2="B" operator="in" result="C"/><feMerge><feMergeNode in="C"/><feMergeNode in="SourceGraphic"/></feMerge></filter></defs><symbol id="C" overflow="visible"><path d="M50 20L30 0H5a4.99 4.99 0 0 0-5 5v54a4.99 4.99 0 0 0 5 5h40a4.99 4.99 0 0 0 5-5z" fill="#607d8b" stroke="none" filter="url(#A)"/><defs/><path d="M26.363 29.893c3.593 0 6.507 1.46 6.507 3.262s-2.914 3.261-6.507 3.261-6.507-1.46-6.507-3.261 2.913-3.262 6.507-3.262zm14.593 9.113l-1.952-12.148c-.014-.088-.091-.154-.183-.154H13.162c-.092 0-.17.065-.184.154l-1.954 12.164c-.014.026-.023.057-.023.088v7.709c0 .1.083.181.187.181h29.628c.102 0 .186-.081.186-.181V39.11c-.001-.039-.017-.075-.044-.105zm-14.563-9.778c4.412 0 7.99 1.801 7.99 4.023s-3.577 4.022-7.99 4.022-7.99-1.801-7.99-4.022 3.576-4.023 7.99-4.023zm13.246 16.446h-27.28v-5.418h27.28v5.418zm-3.69-1.686h2.347c.103 0 .186-.081.186-.181v-2.289c0-.1-.083-.181-.186-.181h-2.347c-.102 0-.185.081-.185.181v2.289c0 .101.083.181.185.181zm-3.918 0h2.347c.102 0 .185-.081.185-.181v-2.289c0-.1-.083-.181-.185-.181h-2.347c-.102 0-.185.081-.185.181v2.289c.001.101.084.181.185.181zm-4.112 0h2.343c.102 0 .185-.081.185-.181v-2.289c0-.1-.083-.181-.185-.181h-2.343c-.102 0-.185.081-.185.181v2.289c.001.101.083.181.185.181zm-13.201 0h2.346c.102 0 .185-.081.185-.181v-2.289c0-.1-.083-.181-.185-.181h-2.346c-.102 0-.187.081-.187.181v2.289c0 .101.084.181.187.181z" stroke="none"/><g transform="matrix(-1 0 0 -1 50 20)"><path d="M20 20L0 0h15a4.99 4.99 0 0 1 5 5z" fill="#90a4ae" stroke="none" filter="url(#B)"/><defs/></g></symbol></svg>