<?xml version="1.0" encoding="utf-8"?>
<svg viewBox="0 0 32 32" xmlns="http://www.w3.org/2000/svg">
  <title>file_type_js_official</title>
  <rect x="3.5" y="2" width="25" height="28" style="fill:#f5de19"/>
  <path d="M 20.294 23.875 C 20.729 24.864 21.631 25.486 22.615 25.475 C 23.587 25.475 24.211 24.93 24.211 24.175 C 24.211 23.275 23.571 22.953 22.5 22.428 L 21.912 22.146 C 20.216 21.337 19.091 20.324 19.091 18.182 C 19.091 16.209 20.431 14.706 22.531 14.706 C 23.921 14.594 25.237 15.423 25.872 16.813 L 24.036 18.128 C 23.791 17.438 23.191 16.989 22.528 17 C 21.93 16.933 21.409 17.455 21.404 18.128 C 21.404 18.917 21.84 19.237 22.848 19.728 L 23.436 20.01 C 25.432 20.969 26.561 21.946 26.561 24.143 C 26.561 26.512 24.899 27.81 22.668 27.81 C 20.892 27.937 19.215 26.883 18.387 25.119 L 20.294 23.875 Z M 11.994 24.103 C 12.362 24.836 12.699 25.456 13.506 25.456 C 14.278 25.456 14.765 25.118 14.765 23.803 L 14.765 14.856 L 17.114 14.856 L 17.114 23.838 C 17.114 26.562 15.686 27.802 13.606 27.802 C 12.102 27.894 10.702 26.941 10.082 25.402 L 11.994 24.103 Z"/>
</svg>