<?xml version="1.0" encoding="utf-8"?>
<svg version="1.1" id="Ebene_1" xmlns="http://www.w3.org/2000/svg" x="0px" y="0px" width="512px" height="512px" viewBox="0 0 512 512" enable-background="new 0 0 600 800">
  <g transform="matrix(0.68668, 0, 0, 0.6774, 28.986423, -13.764408)">
    <path fill="#86B918" d="M131.969,755.898c11.244,0,19.199-4.599,25.85-11.573l7.591,6.827c-8.227,9.192-18.222,15.376-33.76,15.376   c-22.534,0-40.906-17.294-40.906-42.824c0-23.777,16.649-42.815,39.333-42.815c24.237,0,38.203,19.347,38.203,43.453   c0,1.113,0,2.381-0.15,3.803h-65.031C104.838,745.921,117.536,755.898,131.969,755.898z M155.927,719.111   c-1.277-14.907-9.844-27.916-26.194-27.916c-14.242,0-25.043,11.909-26.639,27.916H155.927z" />
    <path fill="#41281B" d="M231.23,725.461h-26.957v39.177H191.75V653.616h41.562c25.043,0,41.542,13.331,41.542,35.373   C274.854,713.096,254.87,725.461,231.23,725.461z M232.333,665.196h-28.062v48.839h27.447c18.386,0,30.441-9.823,30.441-24.577   C262.163,673.444,250.28,665.196,232.333,665.196z" />
    <path fill="#41281B" d="M388.377,717.193c0,32.363-18.535,49.174-46.3,49.174c-27.424,0-46.134-16.811-46.134-48.208v-64.543   h12.518v63.752c0,23.939,12.693,37.425,33.954,37.425c20.453,0,33.462-12.378,33.462-36.634v-64.543h12.5V717.193z" />
    <path fill="#41281B" d="M500.202,681.379c0,14.584-8.885,22.034-17.602,25.85c13.163,3.95,23.771,11.561,23.771,26.958   c0,19.172-16.014,30.451-40.269,30.451h-50.112V653.616h48.048C485.92,653.616,500.202,664.392,500.202,681.379z M487.51,683.122   c0-11.112-8.739-18.24-24.573-18.24h-34.59v38.229h33.63C477.033,703.104,487.51,696.277,487.51,683.122z M493.698,733.388   c0-12.218-10.162-19.192-29.513-19.192h-35.839v39.163h38.076C483.238,753.358,493.698,745.921,493.698,733.388z" />
  </g>
  <path fill="#86B918" d="M 233.999 303.201 L 117.733 188.492 L 233.999 73.805 L 272.762 112.034 L 195.24 188.492 L 233.997 226.728 L 350.267 112.039 L 248.983 12.124 C 240.712 3.959 227.298 3.959 219.019 12.124 L 55.204 173.727 C 46.932 181.887 46.932 195.12 55.204 203.285 L 219.019 364.882 C 227.298 373.047 240.712 373.047 248.983 364.882 L 412.798 203.285 C 421.067 195.12 421.067 181.887 412.798 173.727 L 389.018 150.275 L 233.999 303.201 Z" />
</svg>