<?xml version="1.0" encoding="utf-8"?>
<svg viewBox="0 0 512 512" xmlns="http://www.w3.org/2000/svg">
  <g transform="matrix(0.869202, 0, 0, 0.999996, 194.543823, 789.23999)" style="transform-origin: -207.062px -789.24px;">
    <path opacity=".1" d="m-124.98-789.24c-5.63 0-10.156 4.527-10.156 10.156v491.69c0 5.63 4.527 10.156 10.156 10.156h439.88c5.63 0 10.156-4.527 10.156-10.156v-334.09l-167.75-167.75h-282.28"/>
    <path opacity=".3" d="m-121.98-785.74c-5.553 0-10.03 4.479-10.03 10.03v484.94c0 5.553 4.479 10.03 10.03 10.03h433.88c5.553 0 10.03-4.479 10.03-10.03v-327.84l-167.12-167.12h-276.78"/>
    <path opacity=".1" d="m-118.98-782.24c-5.476 0-9.875 4.399-9.875 9.875v478.25c0 5.476 4.399 9.875 9.875 9.875h427.88c5.476 0 9.875-4.399 9.875-9.875v-321.66l-166.47-166.47h-271.28"/>
    <path d="m-115.98-778.74c-5.399 0-9.719 4.351-9.719 9.75v471.5c0 5.399 4.32 9.75 9.719 9.75h421.88c5.399 0 9.719-4.351 9.719-9.75v-315.44l-165.81-165.81h-265.78" fill="#fff"/>
    <path id="0" fill="#ccc" d="m315.61-612.92l-165.81-165.81v156.06c0 5.399 4.32 9.75 9.719 9.75h156.09" fill-opacity="1"/>
    <use href="#0" />
    <path opacity="0.05" d="m155.55-613.77c54.11 54.4 112.06 112.7 160.06 160.69v-159.84h-156.09c-1.422 0-2.756-0.3-3.969-0.844"/>
  </g>
</svg>