<?xml version="1.0" encoding="utf-8"?>
<svg width="64" version="1.1" viewBox="0 0 64 64" height="64" xmlns="http://www.w3.org/2000/svg" xmlns:xlink="http://www.w3.org/1999/xlink">
  <defs id="defs4">
    <linearGradient id="linearGradient4306" y1="61" y2="3" x2="0" gradientUnits="userSpaceOnUse" gradientTransform="matrix(1.136364, 0, 0, 1, -4.363636, 0)" xlink:href="#linearGradient4300-7"/>
    <linearGradient id="linearGradient4427" y1="31" x1="54" y2="17" x2="40" gradientUnits="userSpaceOnUse" gradientTransform="matrix(1.136364, 0, 0, -1, -20.272728, 78)" xlink:href="#linearGradient4410"/>
    <linearGradient id="linearGradient4410">
      <stop style="stop-color:#383e51" id="stop4412"/>
      <stop offset="1" style="stop-color:#655c6f;stop-opacity:0" id="stop4414"/>
    </linearGradient>
    <linearGradient id="linearGradient4357" y1="61" y2="47" x2="0" gradientUnits="userSpaceOnUse" gradientTransform="matrix(1.136364, 0, 0, 1, -4.363636, 0)" xlink:href="#linearGradient4351-8"/>
    <linearGradient id="linearGradient4351-8">
      <stop style="stop-color:#dedede" id="stop4353-5"/>
      <stop offset="1" style="stop-color:#fbfbfb" id="stop4355-8"/>
    </linearGradient>
    <linearGradient id="linearGradient4300-7">
      <stop style="stop-color:#5e6b78" id="stop4302-2"/>
      <stop offset="1" style="stop-color:#768492" id="stop4304-4"/>
    </linearGradient>
  </defs>
  <path style="fill:url(#linearGradient4306)" id="rect3500" d="M 7 3 L 7 61 L 41.091 61 L 57 47 L 57 17 L 57 3 L 41.091 3 L 7 3 Z"/>
  <rect width="34.091" x="7" y="60" height="1" style="fill:#2e3132;fill-opacity:0.294118" id="rect4169"/>
  <rect width="50" x="7" y="3" height="1" style="fill:#ffffff;fill-opacity:0.409836" id="rect4236"/>
  <path style="fill:url(#linearGradient4357);fill-rule:evenodd" id="path4314" d="M 57 47 L 41.091 61 L 41.091 47 L 57 47 Z"/>
  <path style="fill:url(#linearGradient4427);opacity:0.2;fill-rule:evenodd" id="path4320" d="M 25.182 61 L 41.091 47 L 41.091 61 L 25.182 61 Z"/>
  <path style="fill:#fbfbfb" id="rect3367" d="M 17.227 24 L 17.227 40 L 46.773 40 L 46.773 24 L 17.227 24 Z M 18.364 25 L 45.636 25 L 45.636 39 L 18.364 39 L 18.364 25 Z M 19.5 26 L 19.5 26.826 L 19.5 38 L 21.773 38 L 21.773 28.826 L 26.318 32.826 L 30.864 28.826 L 30.864 38 L 33.136 38 L 33.136 26.826 L 33.136 26 L 30.861 26 L 26.318 29.998 L 21.775 26 L 21.773 26 L 19.5 26 Z M 38.818 26 L 38.818 34 L 35.409 34 L 39.954 38 L 44.5 34 L 41.091 34 L 41.091 26 L 38.818 26 Z"/>
</svg>