<?xml version="1.0" encoding="utf-8"?>
<svg viewBox="0 0 512 512" xmlns="http://www.w3.org/2000/svg">
  <g fill-opacity=".078" transform="matrix(1.067648, 0, 0, 1, -17.323257, 0.00148)">
    <path d="m66.61 0c-4.047 0-7.299 3.253-7.299 7.299v497.4c0 4.047 3.253 7.299 7.299 7.299h378.79c4.047 0 7.299-3.253 7.299-7.299v-359.46l-145.21-145.24h-240.88"/>
    <path d="m69.2 3.5c-3.991 0-7.2 3.208-7.2 7.2v490.6c0 3.991 3.208 7.2 7.2 7.2h373.61c3.991 0 7.2-3.208 7.2-7.2v-354.55l-143.22-143.25h-237.59"/>
    <path d="m71.786 7c-3.936 0-7.1 3.164-7.1 7.1v483.8c0 3.936 3.164 7.1 7.1 7.1h368.43c3.936 0 7.1-3.164 7.1-7.1v-349.63l-141.24-141.27h-234.29"/>
  </g>
  <path d="M 62.09 10.501 C 57.946 10.501 54.615 13.62 54.615 17.501 L 54.615 494.501 C 54.615 498.382 57.946 501.501 62.09 501.501 L 449.91 501.501 C 454.055 501.501 457.385 498.382 457.385 494.501 L 457.385 149.781 L 308.715 10.501 L 62.09 10.501" fill="#6ea6c1"/>
  <path d="M 95.846 131.911 L 95.846 158.071 L 97.985 158.071 L 97.985 160.071 L 100.087 160.071 L 100.087 162.04 L 102.22 162.04 L 102.22 164.04 L 104.357 164.04 L 104.357 166.04 L 106.459 166.04 L 106.459 168.009 L 108.592 168.009 L 108.592 170.009 L 110.729 170.009 L 110.729 172.009 L 112.832 172.009 L 112.832 173.978 L 114.965 173.978 L 114.965 175.978 L 117.102 175.978 L 117.102 177.978 L 119.204 177.978 L 119.204 179.947 L 121.338 179.947 L 121.338 181.947 L 123.474 181.947 L 123.474 183.947 L 125.609 183.947 L 125.609 185.947 L 127.711 185.947 L 127.711 187.416 L 95.847 187.416 L 95.847 213.576 L 97.986 213.576 L 97.986 215.576 L 100.088 215.576 L 100.088 217.545 L 102.221 217.545 L 102.221 219.545 L 104.358 219.545 L 104.358 221.545 L 106.46 221.545 L 106.46 223.514 L 108.593 223.514 L 108.593 225.514 L 110.73 225.514 L 110.73 227.514 L 112.833 227.514 L 112.833 229.483 L 114.966 229.483 L 114.966 231.483 L 117.103 231.483 L 117.103 233.483 L 119.205 233.483 L 119.205 235.452 L 121.339 235.452 L 121.339 237.452 L 123.475 237.452 L 123.475 239.452 L 125.61 239.452 L 125.61 241.452 L 127.712 241.452 L 127.712 242.921 L 95.848 242.921 L 95.848 269.111 L 97.987 269.111 L 97.987 271.111 L 100.089 271.111 L 100.089 273.08 L 102.222 273.08 L 102.222 275.08 L 104.359 275.08 L 104.359 277.08 L 106.461 277.08 L 106.461 279.049 L 108.594 279.049 L 108.594 281.049 L 110.731 281.049 L 110.731 283.049 L 112.834 283.049 L 112.834 285.018 L 114.967 285.018 L 114.967 287.018 L 117.104 287.018 L 117.104 289.018 L 119.206 289.018 L 119.206 290.987 L 121.34 290.987 L 121.34 292.987 L 123.476 292.987 L 123.476 294.987 L 125.611 294.987 L 125.611 296.987 L 127.713 296.987 L 127.713 298.456 L 95.849 298.456 L 95.849 324.616 L 97.988 324.616 L 97.988 326.616 L 100.09 326.616 L 100.09 328.585 L 102.223 328.585 L 102.223 330.585 L 104.36 330.585 L 104.36 332.585 L 106.462 332.585 L 106.462 334.554 L 108.595 334.554 L 108.595 336.554 L 110.732 336.554 L 110.732 338.554 L 112.835 338.554 L 112.835 340.523 L 114.968 340.523 L 114.968 342.523 L 117.105 342.523 L 117.105 344.523 L 119.208 344.523 L 119.208 346.492 L 121.341 346.492 L 121.341 348.492 L 123.477 348.492 L 123.477 350.492 L 125.612 350.492 L 125.612 352.492 L 127.714 352.492 L 127.714 353.961 L 95.85 353.961 L 95.85 380.121 L 97.989 380.121 L 97.989 382.121 L 100.091 382.121 L 100.091 384.09 L 102.224 384.09 L 102.224 386.09 L 104.361 386.09 L 104.361 388.09 L 106.463 388.09 L 106.463 390.059 L 108.596 390.059 L 108.596 392.059 L 110.733 392.059 L 110.733 394.059 L 112.836 394.059 L 112.836 396.028 L 114.969 396.028 L 114.969 398.028 L 117.106 398.028 L 117.106 400.028 L 119.209 400.028 L 119.209 401.997 L 121.342 401.997 L 121.342 403.997 L 123.478 403.997 L 123.478 405.997 L 125.613 405.997 L 125.613 407.997 L 127.715 407.997 L 127.715 409.966 L 129.851 409.966 L 129.851 411.966 L 131.985 411.966 L 131.985 413.966 L 134.087 413.966 L 134.087 415.935 L 136.224 415.935 L 136.224 417.935 L 138.357 417.935 L 138.357 419.935 L 140.461 419.935 L 140.461 421.904 L 142.597 421.904 L 142.597 423.904 L 144.73 423.904 L 144.73 425.904 L 146.832 425.904 L 146.832 427.873 L 148.969 427.873 L 148.969 429.873 L 151.102 429.873 L 151.102 431.873 L 153.205 431.873 L 153.205 433.842 L 155.343 433.842 L 155.343 435.842 L 157.477 435.842 L 157.477 437.842 L 159.581 437.842 L 159.581 439.811 L 161.716 439.811 L 161.716 441.811 L 163.851 441.811 L 163.851 443.811 L 165.953 443.811 L 165.953 445.78 L 168.087 445.78 L 168.087 447.78 L 170.225 447.78 L 170.225 449.78 L 172.358 449.78 L 172.358 451.78 L 174.46 451.78 L 174.46 453.749 L 176.597 453.749 L 176.597 455.749 L 178.73 455.749 L 178.73 457.749 L 180.833 457.749 L 180.833 459.718 L 182.97 459.718 L 182.97 461.718 L 185.103 461.718 L 185.103 463.718 L 187.205 463.718 L 187.205 465.687 L 189.342 465.687 L 189.342 467.687 L 191.476 467.687 L 191.476 469.687 L 193.578 469.687 L 193.578 471.656 L 195.715 471.656 L 195.715 473.656 L 197.849 473.656 L 197.849 475.656 L 199.951 475.656 L 199.951 477.625 L 202.087 477.625 L 202.087 479.625 L 204.221 479.625 L 204.221 481.625 L 206.323 481.625 L 206.323 483.594 L 208.461 483.594 L 208.461 485.594 L 210.594 485.594 L 210.594 487.594 L 212.696 487.594 L 212.696 489.563 L 214.833 489.563 L 214.833 491.563 L 216.966 491.563 L 216.966 493.563 L 219.103 493.563 L 219.103 495.563 L 221.205 495.563 L 221.205 497.532 L 223.339 497.532 L 223.339 499.532 L 225.477 499.532 L 225.477 501.532 L 449.916 501.532 C 454.059 501.532 457.39 498.413 457.39 494.532 L 457.39 149.812 L 316.195 149.812 C 315.805 149.812 315.432 149.771 315.06 149.718 C 314.932 149.7 314.817 149.68 314.69 149.655 C 314.467 149.613 314.239 149.559 314.025 149.499 C 313.769 149.427 313.534 149.345 313.289 149.249 C 313.142 149.19 312.998 149.129 312.856 149.061 C 312.587 148.936 312.338 148.808 312.089 148.655 C 312.643 149.444 313.349 150.135 314.19 150.655 C 314.746 151.444 315.484 152.104 316.327 152.624 C 316.884 153.414 317.617 154.103 318.461 154.624 C 319.024 155.424 319.738 156.132 320.598 156.655 C 321.146 157.426 321.843 158.079 322.665 158.593 C 323.224 159.397 323.98 160.065 324.833 160.593 C 325.396 161.393 326.112 162.101 326.97 162.624 C 327.518 163.395 328.216 164.048 329.037 164.562 C 329.596 165.366 330.352 166.034 331.206 166.562 C 331.77 167.362 332.486 168.07 333.343 168.593 C 333.891 169.364 334.59 170.018 335.41 170.531 C 335.97 171.335 336.725 172.003 337.578 172.531 C 338.143 173.331 338.858 174.039 339.716 174.562 C 340.263 175.333 340.961 175.986 341.782 176.5 C 342.343 177.304 343.098 177.972 343.952 178.5 C 344.516 179.3 345.23 180.008 346.088 180.531 C 346.637 181.303 347.334 181.955 348.157 182.469 C 348.716 183.273 349.471 183.941 350.325 184.469 C 350.881 185.259 351.617 185.948 352.46 186.469 C 352.706 186.82 352.986 187.135 353.294 187.438 L 343.218 187.438 L 343.218 185.657 L 341.116 185.657 L 341.116 183.688 L 338.979 183.688 L 338.979 181.688 L 336.845 181.688 L 336.845 179.688 L 334.743 179.688 L 334.743 177.719 L 332.607 177.719 L 332.607 175.719 L 330.474 175.719 L 330.474 173.719 L 328.372 173.719 L 328.372 171.75 L 326.234 171.75 L 326.234 169.75 L 324.1 169.75 L 324.1 167.75 L 321.998 167.75 L 321.998 165.781 L 319.861 165.781 L 319.861 163.781 L 317.728 163.781 L 317.728 161.781 L 315.626 161.781 L 315.626 159.812 L 313.489 159.812 L 313.489 157.812 L 311.355 157.812 L 311.355 155.812 L 309.218 155.812 L 309.218 153.812 L 307.116 153.812 L 307.116 151.843 L 304.982 151.843 L 304.982 149.843 L 302.847 149.843 L 302.847 147.843 L 300.745 147.843 L 300.745 145.874 L 298.61 145.874 L 298.61 143.874 L 296.473 143.874 L 296.473 141.874 L 294.371 141.874 L 294.371 139.905 L 292.237 139.905 L 292.237 137.905 L 290.1 137.905 L 290.1 135.905 L 287.998 135.905 L 287.998 133.936 L 285.865 133.936 L 285.865 131.936 L 95.852 131.936" fill-opacity=".235"/>
  <g fill="#fff" transform="matrix(1.067648, 0, 0, 1, -17.323257, 0.00148)">
    <path d="m106 131.91v26.16h177.97v-26.16h-177.97m0 55.5v26.16h300v-26.16h-300m0 55.5v26.19h300v-26.19h-300m0 55.53v26.16h300v-26.16h-300m0 55.5v26.16h300v-26.16h-300"/>
    <path d="m444.62 149.78l-139.25-139.28v132.28c0 3.881 3.119 7 7 7h132.25" fill-opacity=".196"/>
  </g>
</svg>