<?xml version="1.0" encoding="utf-8"?>
<svg viewBox="0 0 512 512" xmlns="http://www.w3.org/2000/svg">
  <g fill-opacity=".078" transform="matrix(1.143909, 0, 0, 1, -36.846436, 0.00148)">
    <path d="m66.61 0c-4.047 0-7.299 3.253-7.299 7.299v497.4c0 4.047 3.253 7.299 7.299 7.299h378.79c4.047 0 7.299-3.253 7.299-7.299v-359.46l-145.21-145.24h-240.88"/>
    <path d="m69.2 3.5c-3.991 0-7.2 3.208-7.2 7.2v490.6c0 3.991 3.208 7.2 7.2 7.2h373.61c3.991 0 7.2-3.208 7.2-7.2v-354.55l-143.22-143.25h-237.59"/>
    <path d="m71.786 7c-3.936 0-7.1 3.164-7.1 7.1v483.8c0 3.936 3.164 7.1 7.1 7.1h368.43c3.936 0 7.1-3.164 7.1-7.1v-349.63l-141.24-141.27h-234.29"/>
  </g>
  <path d="M 48.237 10.501 C 43.798 10.501 40.231 13.62 40.231 17.501 L 40.231 494.501 C 40.231 498.382 43.798 501.501 48.237 501.501 L 463.762 501.501 C 468.203 501.501 471.77 498.382 471.77 494.501 L 471.77 149.781 L 312.483 10.501 L 48.237 10.501" fill="#047aae"/>
  <path d="M 316.37 148.781 C 321.503 154.738 329.227 159.359 334.741 165.094 C 380.401 205.043 426.081 244.975 471.76 284.904 L 471.76 149.784 L 320.477 149.784 C 318.965 149.784 317.57 149.414 316.366 148.784" fill-opacity=".235"/>
  <path fill="#fff" d="M 471.76 149.781 L 312.47 10.501 L 312.47 142.781 C 312.47 146.662 316.037 149.781 320.477 149.781 L 471.76 149.781" fill-opacity=".196"/>
  <path d="M 253.993 160.281 C 227.385 160.313 182.67 162.805 187.463 195.531 C 188.728 204.035 183.815 217.925 192.575 219.875 C 204.591 227.378 186.076 223.611 176.81 224.5 C 155.273 222.559 129.795 228.04 121.939 247.938 C 111.3 275.735 111.284 308.603 128.445 334.378 C 191.656 390.309 255.247 445.938 318.907 501.508 L 463.759 501.508 C 468.199 501.508 471.767 498.389 471.767 494.508 L 471.767 311.728 C 419.125 265.787 366.448 219.848 313.942 173.788 C 298.48 159.832 274.383 161.127 253.989 160.288" fill-opacity=".235"/>
  <g transform="matrix(1.044321, 0, 0, 0.91294, 660.183289, 161.971481)" fill="#fff">
    <path d="m-388.94-1.843c-11.142 0.049-21.782 1.012-31.14 2.685-27.581 4.92-32.589 15.218-32.589 34.21v25.08h65.18v8.361h-89.64c-18.942 0-35.529 11.496-40.717 33.366-5.984 25.07-6.25 40.711 0 66.885 4.633 19.484 15.697 33.366 34.639 33.366h22.409v-30.07c0-21.722 18.613-40.883 40.717-40.883h65.1c18.12 0 32.589-15.07 32.589-33.442v-62.67c0-17.835-14.9-31.23-32.589-34.21-11.196-1.882-22.813-2.737-33.956-2.685m-35.25 20.17c6.733 0 12.23 5.642 12.23 12.579 0 6.913-5.498 12.503-12.23 12.503-6.757 0-12.23-5.59-12.23-12.503 0-6.937 5.474-12.579 12.23-12.579"/>
    <path d="m-313.81 67.99v29.01c0 22.49-19.06 41.42-40.799 41.42h-65.23c-17.869 0-32.655 15.297-32.655 33.2v62.2c0 17.704 15.391 28.12 32.655 33.2 20.673 6.081 40.498 7.179 65.23 0 16.442-4.762 32.655-14.344 32.655-33.2v-24.897h-65.23v-8.299h97.885c18.98 0 26.05-13.243 32.654-33.12 6.819-20.463 6.529-40.14 0-66.39-4.69-18.9-13.649-33.12-32.654-33.12zm-36.689 157.53c6.77 0 12.255 5.548 12.255 12.41 0 6.886-5.485 12.487-12.255 12.487-6.746 0-12.255-5.601-12.255-12.487 0-6.862 5.509-12.41 12.255-12.41"/>
  </g>
</svg>